<mxfile host="app.diagrams.net" agent="Mozilla/5.0 (Windows NT 10.0; Win64; x64) AppleWebKit/537.36 (KHTML, like Gecko) Chrome/129.0.0.0 Safari/537.36" version="24.7.17">
  <diagram name="Page-1" id="_9r6geDOEYo5xFr4fmT0">
    <mxGraphModel dx="3393" dy="1808" grid="1" gridSize="10" guides="1" tooltips="1" connect="1" arrows="1" fold="1" page="1" pageScale="1" pageWidth="850" pageHeight="1100" background="#FFFFFF" math="0" shadow="0">
      <root>
        <mxCell id="0" />
        <mxCell id="1" parent="0" />
        <mxCell id="sWa0SD8Ajx1KSGOqKPP4-1" value="rr:template&lt;div&gt;&lt;span style=&quot;background-color: initial;&quot;&gt;&quot;&lt;/span&gt;&lt;span style=&quot;background-color: initial;&quot;&gt;{RICO_VERSION}&lt;/span&gt;&lt;span style=&quot;background-color: initial;&quot;&gt;/{&lt;/span&gt;&lt;span style=&quot;background-color: initial;&quot;&gt;REFD}/RecordSet/1&lt;/span&gt;&lt;/div&gt;" style="swimlane;fontStyle=0;childLayout=stackLayout;horizontal=1;startSize=26;fillColor=none;horizontalStack=0;resizeParent=1;resizeParentMax=0;resizeLast=0;collapsible=1;marginBottom=0;whiteSpace=wrap;html=1;" parent="1" vertex="1">
          <mxGeometry x="320" y="370" width="240" height="52" as="geometry" />
        </mxCell>
        <mxCell id="sWa0SD8Ajx1KSGOqKPP4-2" value="rico:RecordSet" style="text;strokeColor=none;fillColor=none;align=center;verticalAlign=top;spacingLeft=4;spacingRight=4;overflow=hidden;rotatable=0;points=[[0,0.5],[1,0.5]];portConstraint=eastwest;whiteSpace=wrap;html=1;" parent="sWa0SD8Ajx1KSGOqKPP4-1" vertex="1">
          <mxGeometry y="26" width="240" height="26" as="geometry" />
        </mxCell>
        <mxCell id="sWa0SD8Ajx1KSGOqKPP4-3" value="&lt;div&gt;&lt;div&gt;&lt;span style=&quot;background-color: initial;&quot;&gt;rr:template&lt;/span&gt;&lt;/div&gt;&lt;div&gt;&lt;span style=&quot;background-color: initial;&quot;&gt;&quot;Schema&lt;/span&gt;&lt;span style=&quot;background-color: initial;&quot;&gt;/Description-Listings/&lt;/span&gt;RecordSetType&lt;span style=&quot;background-color: initial;&quot;&gt;/{&lt;/span&gt;LEVELDES&lt;span style=&quot;background-color: initial;&quot;&gt;}&quot;&lt;/span&gt;&lt;/div&gt;&lt;/div&gt;" style="swimlane;fontStyle=0;childLayout=stackLayout;horizontal=1;startSize=26;fillColor=none;horizontalStack=0;resizeParent=1;resizeParentMax=0;resizeLast=0;collapsible=1;marginBottom=0;whiteSpace=wrap;html=1;" parent="1" vertex="1">
          <mxGeometry x="830" y="309" width="390" height="52" as="geometry">
            <mxRectangle x="981" y="570" width="50" height="40" as="alternateBounds" />
          </mxGeometry>
        </mxCell>
        <mxCell id="sWa0SD8Ajx1KSGOqKPP4-4" value="rico:RecordSetType&lt;div&gt;&lt;br&gt;&lt;/div&gt;" style="text;strokeColor=none;fillColor=none;align=center;verticalAlign=top;spacingLeft=4;spacingRight=4;overflow=hidden;rotatable=0;points=[[0,0.5],[1,0.5]];portConstraint=eastwest;whiteSpace=wrap;html=1;" parent="sWa0SD8Ajx1KSGOqKPP4-3" vertex="1">
          <mxGeometry y="26" width="390" height="26" as="geometry" />
        </mxCell>
        <mxCell id="sWa0SD8Ajx1KSGOqKPP4-5" value="" style="endArrow=classic;html=1;rounded=0;entryX=0;entryY=0.5;entryDx=0;entryDy=0;exitX=1;exitY=0.25;exitDx=0;exitDy=0;" parent="1" source="sWa0SD8Ajx1KSGOqKPP4-1" target="sWa0SD8Ajx1KSGOqKPP4-4" edge="1">
          <mxGeometry relative="1" as="geometry">
            <mxPoint x="530" y="380" as="sourcePoint" />
            <mxPoint x="610" y="390" as="targetPoint" />
          </mxGeometry>
        </mxCell>
        <mxCell id="sWa0SD8Ajx1KSGOqKPP4-6" value="rico:hasRecordSetType" style="edgeLabel;resizable=0;html=1;;align=center;verticalAlign=middle;" parent="sWa0SD8Ajx1KSGOqKPP4-5" connectable="0" vertex="1">
          <mxGeometry relative="1" as="geometry" />
        </mxCell>
        <mxCell id="sWa0SD8Ajx1KSGOqKPP4-11" value="&lt;div&gt;&lt;span style=&quot;background-color: initial;&quot;&gt;rml:reference&lt;/span&gt;&lt;br&gt;&lt;/div&gt;&lt;div&gt;&lt;span style=&quot;background-color: initial;&quot;&gt;&quot;&lt;/span&gt;SCOPE&lt;span style=&quot;background-color: initial;&quot;&gt;&quot;&lt;/span&gt;&lt;/div&gt;" style="html=1;whiteSpace=wrap;rounded=1;arcSize=50;" parent="1" vertex="1">
          <mxGeometry x="-320" y="420" width="140" height="50" as="geometry" />
        </mxCell>
        <mxCell id="sWa0SD8Ajx1KSGOqKPP4-12" value="" style="endArrow=classic;html=1;rounded=0;exitX=0.003;exitY=0.038;exitDx=0;exitDy=0;exitPerimeter=0;entryX=1;entryY=0.5;entryDx=0;entryDy=0;" parent="1" source="sWa0SD8Ajx1KSGOqKPP4-2" target="sWa0SD8Ajx1KSGOqKPP4-11" edge="1">
          <mxGeometry relative="1" as="geometry">
            <mxPoint x="290" y="400" as="sourcePoint" />
            <mxPoint x="130" y="400" as="targetPoint" />
          </mxGeometry>
        </mxCell>
        <mxCell id="sWa0SD8Ajx1KSGOqKPP4-13" value="rico:scopeAndContent" style="edgeLabel;resizable=0;html=1;;align=center;verticalAlign=middle;" parent="sWa0SD8Ajx1KSGOqKPP4-12" connectable="0" vertex="1">
          <mxGeometry relative="1" as="geometry" />
        </mxCell>
        <mxCell id="sWa0SD8Ajx1KSGOqKPP4-14" value="rr:template&lt;br&gt;&lt;span style=&quot;background-color: initial;&quot;&gt;&quot;&lt;/span&gt;{RICO_VERSION}&lt;span style=&quot;background-color: initial;&quot;&gt;/{&lt;/span&gt;REFD&lt;span style=&quot;background-color: initial;&quot;&gt;}/&lt;/span&gt;Instantiation&lt;span style=&quot;background-color: initial;&quot;&gt;/1&lt;/span&gt;&lt;span style=&quot;background-color: initial;&quot;&gt;&quot;&lt;/span&gt;" style="swimlane;fontStyle=0;childLayout=stackLayout;horizontal=1;startSize=26;fillColor=none;horizontalStack=0;resizeParent=1;resizeParentMax=0;resizeLast=0;collapsible=1;marginBottom=0;whiteSpace=wrap;html=1;strokeColor=#FF0000;" parent="1" vertex="1">
          <mxGeometry x="-945" y="698" width="250" height="52" as="geometry" />
        </mxCell>
        <mxCell id="sWa0SD8Ajx1KSGOqKPP4-15" value="rico:Instantiation&lt;div&gt;&lt;br&gt;&lt;/div&gt;" style="text;strokeColor=none;fillColor=none;align=center;verticalAlign=top;spacingLeft=4;spacingRight=4;overflow=hidden;rotatable=0;points=[[0,0.5],[1,0.5]];portConstraint=eastwest;whiteSpace=wrap;html=1;" parent="sWa0SD8Ajx1KSGOqKPP4-14" vertex="1">
          <mxGeometry y="26" width="250" height="26" as="geometry" />
        </mxCell>
        <mxCell id="K4QZWATomJR9_dxTVFmW-19" value="" style="endArrow=classic;html=1;rounded=0;entryX=0.875;entryY=0;entryDx=0;entryDy=0;entryPerimeter=0;exitX=0.339;exitY=1.026;exitDx=0;exitDy=0;exitPerimeter=0;" parent="1" source="sWa0SD8Ajx1KSGOqKPP4-2" target="K4QZWATomJR9_dxTVFmW-21" edge="1">
          <mxGeometry relative="1" as="geometry">
            <mxPoint x="361" y="420" as="sourcePoint" />
            <mxPoint x="260" y="770" as="targetPoint" />
          </mxGeometry>
        </mxCell>
        <mxCell id="K4QZWATomJR9_dxTVFmW-20" value="rico:history" style="edgeLabel;resizable=0;html=1;;align=center;verticalAlign=middle;" parent="K4QZWATomJR9_dxTVFmW-19" connectable="0" vertex="1">
          <mxGeometry relative="1" as="geometry">
            <mxPoint x="-120" y="147" as="offset" />
          </mxGeometry>
        </mxCell>
        <mxCell id="K4QZWATomJR9_dxTVFmW-21" value="&lt;div&gt;&lt;div&gt;&lt;span style=&quot;background-color: initial;&quot;&gt;rml:reference&lt;/span&gt;&lt;br&gt;&lt;/div&gt;&lt;span style=&quot;background-color: initial;&quot;&gt;&quot;&lt;/span&gt;CUSTOD&lt;span style=&quot;background-color: initial;&quot;&gt;&quot;&lt;/span&gt;&lt;/div&gt;" style="html=1;whiteSpace=wrap;rounded=1;arcSize=50;" parent="1" vertex="1">
          <mxGeometry x="-75.5" y="820" width="110" height="50" as="geometry" />
        </mxCell>
        <mxCell id="K4QZWATomJR9_dxTVFmW-24" value="&lt;div&gt;&lt;div&gt;&lt;span style=&quot;background-color: initial;&quot;&gt;rml:reference&lt;/span&gt;&lt;br&gt;&lt;/div&gt;&lt;span style=&quot;background-color: initial;&quot;&gt;&quot;&lt;/span&gt;ISA&lt;span style=&quot;background-color: initial;&quot;&gt;&quot;&lt;/span&gt;&lt;/div&gt;" style="html=1;whiteSpace=wrap;rounded=1;arcSize=50;" parent="1" vertex="1">
          <mxGeometry x="59" y="842" width="121" height="50" as="geometry" />
        </mxCell>
        <mxCell id="K4QZWATomJR9_dxTVFmW-27" value="" style="endArrow=classic;html=1;rounded=0;entryX=0.5;entryY=0;entryDx=0;entryDy=0;exitX=0.471;exitY=1.013;exitDx=0;exitDy=0;exitPerimeter=0;" parent="1" source="sWa0SD8Ajx1KSGOqKPP4-2" target="K4QZWATomJR9_dxTVFmW-24" edge="1">
          <mxGeometry relative="1" as="geometry">
            <mxPoint x="370" y="430" as="sourcePoint" />
            <mxPoint x="208" y="805" as="targetPoint" />
          </mxGeometry>
        </mxCell>
        <mxCell id="K4QZWATomJR9_dxTVFmW-28" value="rico:history" style="edgeLabel;resizable=0;html=1;;align=center;verticalAlign=middle;" parent="K4QZWATomJR9_dxTVFmW-27" connectable="0" vertex="1">
          <mxGeometry relative="1" as="geometry">
            <mxPoint x="-72" y="139" as="offset" />
          </mxGeometry>
        </mxCell>
        <mxCell id="K4QZWATomJR9_dxTVFmW-37" value="" style="endArrow=classic;html=1;rounded=0;entryX=1;entryY=0.5;entryDx=0;entryDy=0;exitX=-0.002;exitY=0.288;exitDx=0;exitDy=0;exitPerimeter=0;" parent="1" source="sWa0SD8Ajx1KSGOqKPP4-2" target="sWa0SD8Ajx1KSGOqKPP4-14" edge="1">
          <mxGeometry relative="1" as="geometry">
            <mxPoint x="280" y="420" as="sourcePoint" />
            <mxPoint x="110" y="490" as="targetPoint" />
          </mxGeometry>
        </mxCell>
        <mxCell id="K4QZWATomJR9_dxTVFmW-38" value="rico:hasOrHadInstantiation" style="edgeLabel;resizable=0;html=1;;align=center;verticalAlign=middle;" parent="K4QZWATomJR9_dxTVFmW-37" connectable="0" vertex="1">
          <mxGeometry relative="1" as="geometry">
            <mxPoint x="-34" y="5" as="offset" />
          </mxGeometry>
        </mxCell>
        <mxCell id="K4QZWATomJR9_dxTVFmW-41" value="" style="endArrow=classic;html=1;rounded=0;entryX=1;entryY=0.5;entryDx=0;entryDy=0;exitX=0.01;exitY=0.269;exitDx=0;exitDy=0;exitPerimeter=0;" parent="1" source="sWa0SD8Ajx1KSGOqKPP4-15" target="K4QZWATomJR9_dxTVFmW-45" edge="1">
          <mxGeometry relative="1" as="geometry">
            <mxPoint x="-140" y="494.5" as="sourcePoint" />
            <mxPoint x="-290" y="494.5" as="targetPoint" />
          </mxGeometry>
        </mxCell>
        <mxCell id="K4QZWATomJR9_dxTVFmW-42" value="rico:instantiationExtent" style="edgeLabel;resizable=0;html=1;;align=center;verticalAlign=middle;" parent="K4QZWATomJR9_dxTVFmW-41" connectable="0" vertex="1">
          <mxGeometry relative="1" as="geometry" />
        </mxCell>
        <mxCell id="K4QZWATomJR9_dxTVFmW-45" value="&lt;span style=&quot;background-color: initial;&quot;&gt;rml:reference&lt;/span&gt;&lt;br&gt;&lt;span style=&quot;background-color: initial;&quot;&gt;&quot;&lt;/span&gt;PHDESC&lt;span style=&quot;background-color: initial;&quot;&gt;&quot;&lt;/span&gt;" style="html=1;whiteSpace=wrap;rounded=1;arcSize=50;strokeColor=#000000;" parent="1" vertex="1">
          <mxGeometry x="-1265" y="750" width="155" height="50" as="geometry" />
        </mxCell>
        <mxCell id="vEi_3DjQt7wcUmB-cSFn-1" value="" style="endArrow=classic;html=1;rounded=0;entryX=0.75;entryY=0;entryDx=0;entryDy=0;exitX=0.624;exitY=1.013;exitDx=0;exitDy=0;exitPerimeter=0;" parent="1" source="sWa0SD8Ajx1KSGOqKPP4-2" target="vEi_3DjQt7wcUmB-cSFn-3" edge="1">
          <mxGeometry relative="1" as="geometry">
            <mxPoint x="390" y="422" as="sourcePoint" />
            <mxPoint x="360" y="770" as="targetPoint" />
          </mxGeometry>
        </mxCell>
        <mxCell id="vEi_3DjQt7wcUmB-cSFn-2" value="rico:conditionsOfAccess" style="edgeLabel;resizable=0;html=1;;align=center;verticalAlign=middle;" parent="vEi_3DjQt7wcUmB-cSFn-1" connectable="0" vertex="1">
          <mxGeometry relative="1" as="geometry">
            <mxPoint x="-23" y="68" as="offset" />
          </mxGeometry>
        </mxCell>
        <mxCell id="vEi_3DjQt7wcUmB-cSFn-3" value="&lt;div&gt;&lt;span style=&quot;background-color: initial;&quot;&gt;rml:reference&lt;/span&gt;&lt;br&gt;&lt;/div&gt;&lt;span style=&quot;background-color: initial;&quot;&gt;&quot;&lt;/span&gt;RESTRTX&amp;nbsp;&lt;span style=&quot;background-color: initial;&quot;&gt;&quot;&lt;/span&gt;" style="html=1;whiteSpace=wrap;rounded=1;arcSize=50;strokeColor=#FF0000;" parent="1" vertex="1">
          <mxGeometry x="210" y="718" width="130" height="50" as="geometry" />
        </mxCell>
        <mxCell id="vEi_3DjQt7wcUmB-cSFn-4" value="" style="endArrow=classic;html=1;rounded=0;entryX=0.25;entryY=0;entryDx=0;entryDy=0;exitX=0.747;exitY=1.006;exitDx=0;exitDy=0;exitPerimeter=0;" parent="1" source="sWa0SD8Ajx1KSGOqKPP4-2" target="vEi_3DjQt7wcUmB-cSFn-6" edge="1">
          <mxGeometry relative="1" as="geometry">
            <mxPoint x="400" y="430" as="sourcePoint" />
            <mxPoint x="420" y="780" as="targetPoint" />
          </mxGeometry>
        </mxCell>
        <mxCell id="vEi_3DjQt7wcUmB-cSFn-5" value="rico:conditionsOfUse" style="edgeLabel;resizable=0;html=1;;align=center;verticalAlign=middle;" parent="vEi_3DjQt7wcUmB-cSFn-4" connectable="0" vertex="1">
          <mxGeometry relative="1" as="geometry">
            <mxPoint x="8" y="39" as="offset" />
          </mxGeometry>
        </mxCell>
        <mxCell id="vEi_3DjQt7wcUmB-cSFn-6" value="&lt;div&gt;rml:reference&lt;br&gt;&lt;span style=&quot;background-color: initial;&quot;&gt;&quot;&lt;/span&gt;TGU&lt;span style=&quot;background-color: initial;&quot;&gt;&quot;&lt;/span&gt;&lt;/div&gt;" style="html=1;whiteSpace=wrap;rounded=1;arcSize=50;" parent="1" vertex="1">
          <mxGeometry x="390" y="810" width="140" height="50" as="geometry" />
        </mxCell>
        <mxCell id="vEi_3DjQt7wcUmB-cSFn-7" value="" style="endArrow=classic;html=1;rounded=0;entryX=0.376;entryY=-0.04;entryDx=0;entryDy=0;entryPerimeter=0;exitX=0.87;exitY=1.026;exitDx=0;exitDy=0;exitPerimeter=0;" parent="1" source="sWa0SD8Ajx1KSGOqKPP4-2" target="vEi_3DjQt7wcUmB-cSFn-9" edge="1">
          <mxGeometry relative="1" as="geometry">
            <mxPoint x="420" y="420" as="sourcePoint" />
            <mxPoint x="510" y="700" as="targetPoint" />
          </mxGeometry>
        </mxCell>
        <mxCell id="vEi_3DjQt7wcUmB-cSFn-8" value="rico:generalDescription" style="edgeLabel;resizable=0;html=1;;align=center;verticalAlign=middle;" parent="vEi_3DjQt7wcUmB-cSFn-7" connectable="0" vertex="1">
          <mxGeometry relative="1" as="geometry">
            <mxPoint x="29" y="118" as="offset" />
          </mxGeometry>
        </mxCell>
        <mxCell id="vEi_3DjQt7wcUmB-cSFn-9" value="&lt;div&gt;rml:reference&lt;br&gt;&lt;span style=&quot;background-color: initial;&quot;&gt;&quot;&lt;/span&gt;FINDAID&lt;span style=&quot;background-color: initial;&quot;&gt;&quot;&lt;/span&gt;&lt;/div&gt;" style="html=1;whiteSpace=wrap;rounded=1;arcSize=50;" parent="1" vertex="1">
          <mxGeometry x="490" y="850" width="110" height="50" as="geometry" />
        </mxCell>
        <mxCell id="vEi_3DjQt7wcUmB-cSFn-10" value="rr:template&lt;div&gt;&lt;span style=&quot;background-color: initial;&quot;&gt;&quot;&lt;/span&gt;&lt;span style=&quot;background-color: initial;&quot;&gt;{&lt;/span&gt;&lt;span style=&quot;background-color: initial;&quot;&gt;RICO_VERSION}&lt;/span&gt;&lt;span style=&quot;background-color: initial;&quot;&gt;/{&lt;/span&gt;&lt;span style=&quot;background-color: initial;&quot;&gt;REFD}/Record/2&quot;&lt;/span&gt;&lt;/div&gt;" style="swimlane;fontStyle=0;childLayout=stackLayout;horizontal=1;startSize=26;fillColor=none;horizontalStack=0;resizeParent=1;resizeParentMax=0;resizeLast=0;collapsible=1;marginBottom=0;whiteSpace=wrap;html=1;strokeColor=#FF0000;" parent="1" vertex="1">
          <mxGeometry x="630" y="910" width="220" height="52" as="geometry" />
        </mxCell>
        <mxCell id="vEi_3DjQt7wcUmB-cSFn-11" value="rico:Record" style="text;strokeColor=none;fillColor=none;align=center;verticalAlign=top;spacingLeft=4;spacingRight=4;overflow=hidden;rotatable=0;points=[[0,0.5],[1,0.5]];portConstraint=eastwest;whiteSpace=wrap;html=1;" parent="vEi_3DjQt7wcUmB-cSFn-10" vertex="1">
          <mxGeometry y="26" width="220" height="26" as="geometry" />
        </mxCell>
        <mxCell id="vEi_3DjQt7wcUmB-cSFn-14" value="rr:constant&lt;br&gt;&lt;span style=&quot;background-color: initial;&quot;&gt;&quot;https://data.archives.gov.on.ca/Schema/Description-Listings/&lt;/span&gt;DocumentaryFormType/Finding Aid&lt;span style=&quot;background-color: initial;&quot;&gt;&quot;&lt;/span&gt;" style="swimlane;fontStyle=0;childLayout=stackLayout;horizontal=1;startSize=26;fillColor=none;horizontalStack=0;resizeParent=1;resizeParentMax=0;resizeLast=0;collapsible=1;marginBottom=0;whiteSpace=wrap;html=1;" parent="1" vertex="1">
          <mxGeometry x="690" y="1020" width="570" height="50" as="geometry">
            <mxRectangle x="981" y="570" width="50" height="40" as="alternateBounds" />
          </mxGeometry>
        </mxCell>
        <mxCell id="vEi_3DjQt7wcUmB-cSFn-15" value="rico:DocumentaryFormType&lt;div&gt;&lt;div&gt;&lt;br&gt;&lt;/div&gt;&lt;/div&gt;" style="text;strokeColor=none;fillColor=none;align=center;verticalAlign=top;spacingLeft=4;spacingRight=4;overflow=hidden;rotatable=0;points=[[0,0.5],[1,0.5]];portConstraint=eastwest;whiteSpace=wrap;html=1;" parent="vEi_3DjQt7wcUmB-cSFn-14" vertex="1">
          <mxGeometry y="26" width="570" height="24" as="geometry" />
        </mxCell>
        <mxCell id="vEi_3DjQt7wcUmB-cSFn-16" value="" style="endArrow=classic;html=1;rounded=0;entryX=0.5;entryY=0;entryDx=0;entryDy=0;exitX=0.536;exitY=0.957;exitDx=0;exitDy=0;exitPerimeter=0;" parent="1" source="vEi_3DjQt7wcUmB-cSFn-11" target="vEi_3DjQt7wcUmB-cSFn-14" edge="1">
          <mxGeometry relative="1" as="geometry">
            <mxPoint x="630" y="750" as="sourcePoint" />
            <mxPoint x="850" y="770" as="targetPoint" />
          </mxGeometry>
        </mxCell>
        <mxCell id="vEi_3DjQt7wcUmB-cSFn-17" value="rico:hasDocumentaryFormType" style="edgeLabel;resizable=0;html=1;;align=center;verticalAlign=middle;" parent="vEi_3DjQt7wcUmB-cSFn-16" connectable="0" vertex="1">
          <mxGeometry relative="1" as="geometry" />
        </mxCell>
        <mxCell id="wiPwyt0miK05mvKJtJq--1" value="" style="endArrow=classic;html=1;rounded=0;entryX=0.5;entryY=0;entryDx=0;entryDy=0;exitX=0.926;exitY=0.987;exitDx=0;exitDy=0;exitPerimeter=0;" parent="1" source="sWa0SD8Ajx1KSGOqKPP4-2" target="vEi_3DjQt7wcUmB-cSFn-10" edge="1">
          <mxGeometry relative="1" as="geometry">
            <mxPoint x="440" y="440" as="sourcePoint" />
            <mxPoint x="540" y="532" as="targetPoint" />
          </mxGeometry>
        </mxCell>
        <mxCell id="wiPwyt0miK05mvKJtJq--2" value="rico:isOrWasDescribedBy" style="edgeLabel;resizable=0;html=1;;align=center;verticalAlign=middle;" parent="wiPwyt0miK05mvKJtJq--1" connectable="0" vertex="1">
          <mxGeometry relative="1" as="geometry">
            <mxPoint x="35" y="68" as="offset" />
          </mxGeometry>
        </mxCell>
        <mxCell id="wiPwyt0miK05mvKJtJq--11" value="" style="endArrow=classic;html=1;rounded=0;exitX=1;exitY=0.5;exitDx=0;exitDy=0;entryX=0;entryY=0.25;entryDx=0;entryDy=0;" parent="1" source="sWa0SD8Ajx1KSGOqKPP4-2" target="wiPwyt0miK05mvKJtJq--13" edge="1">
          <mxGeometry relative="1" as="geometry">
            <mxPoint x="550" y="450" as="sourcePoint" />
            <mxPoint x="920" y="580" as="targetPoint" />
          </mxGeometry>
        </mxCell>
        <mxCell id="wiPwyt0miK05mvKJtJq--12" value="rico:accruals" style="edgeLabel;resizable=0;html=1;;align=center;verticalAlign=middle;" parent="wiPwyt0miK05mvKJtJq--11" connectable="0" vertex="1">
          <mxGeometry relative="1" as="geometry" />
        </mxCell>
        <mxCell id="wiPwyt0miK05mvKJtJq--13" value="&lt;div&gt;rml:reference&lt;br&gt;&lt;span style=&quot;background-color: initial;&quot;&gt;&quot;&lt;/span&gt;ACCRUAL&lt;span style=&quot;background-color: initial;&quot;&gt;&quot;&lt;/span&gt;&lt;/div&gt;" style="html=1;whiteSpace=wrap;rounded=1;arcSize=50;" parent="1" vertex="1">
          <mxGeometry x="1040" y="618" width="110" height="50" as="geometry" />
        </mxCell>
        <mxCell id="wiPwyt0miK05mvKJtJq--14" value="" style="endArrow=classic;html=1;rounded=0;exitX=1.006;exitY=0.167;exitDx=0;exitDy=0;exitPerimeter=0;entryX=0.02;entryY=0.253;entryDx=0;entryDy=0;entryPerimeter=0;" parent="1" source="sWa0SD8Ajx1KSGOqKPP4-2" target="wiPwyt0miK05mvKJtJq--16" edge="1">
          <mxGeometry relative="1" as="geometry">
            <mxPoint x="500" y="420" as="sourcePoint" />
            <mxPoint x="910" y="520" as="targetPoint" />
          </mxGeometry>
        </mxCell>
        <mxCell id="wiPwyt0miK05mvKJtJq--15" value="rico:generalDescription" style="edgeLabel;resizable=0;html=1;;align=center;verticalAlign=middle;" parent="wiPwyt0miK05mvKJtJq--14" connectable="0" vertex="1">
          <mxGeometry relative="1" as="geometry">
            <mxPoint x="189" y="49" as="offset" />
          </mxGeometry>
        </mxCell>
        <mxCell id="wiPwyt0miK05mvKJtJq--16" value="rml:reference&lt;br&gt;&lt;div&gt;&lt;span style=&quot;background-color: initial;&quot;&gt;&quot;&lt;/span&gt;NOTES&lt;span style=&quot;background-color: initial;&quot;&gt;&quot;&lt;/span&gt;&lt;/div&gt;" style="html=1;whiteSpace=wrap;rounded=1;arcSize=50;" parent="1" vertex="1">
          <mxGeometry x="970" y="540" width="110" height="50" as="geometry" />
        </mxCell>
        <mxCell id="wiPwyt0miK05mvKJtJq--17" value="" style="endArrow=classic;html=1;rounded=0;entryX=1;entryY=0.5;entryDx=0;entryDy=0;exitX=0.06;exitY=0;exitDx=0;exitDy=0;exitPerimeter=0;" parent="1" source="sWa0SD8Ajx1KSGOqKPP4-14" target="wiPwyt0miK05mvKJtJq--19" edge="1">
          <mxGeometry relative="1" as="geometry">
            <mxPoint x="-50" y="430" as="sourcePoint" />
            <mxPoint x="-269.99999999999994" y="396" as="targetPoint" />
          </mxGeometry>
        </mxCell>
        <mxCell id="wiPwyt0miK05mvKJtJq--18" value="rico:physicalCharacteristicsNote" style="edgeLabel;resizable=0;html=1;;align=center;verticalAlign=middle;" parent="wiPwyt0miK05mvKJtJq--17" connectable="0" vertex="1">
          <mxGeometry relative="1" as="geometry">
            <mxPoint x="-35" y="-7" as="offset" />
          </mxGeometry>
        </mxCell>
        <mxCell id="wiPwyt0miK05mvKJtJq--19" value="&lt;div&gt;&lt;span style=&quot;background-color: initial;&quot;&gt;rml:reference&lt;/span&gt;&lt;br&gt;&lt;span style=&quot;background-color: initial;&quot;&gt;&quot;&lt;/span&gt;PHYSCO&lt;span style=&quot;background-color: initial;&quot;&gt;&quot;&lt;/span&gt;&lt;/div&gt;" style="html=1;whiteSpace=wrap;rounded=1;arcSize=50;strokeColor=#000000;" parent="1" vertex="1">
          <mxGeometry x="-1275" y="620" width="130" height="50" as="geometry" />
        </mxCell>
        <mxCell id="wiPwyt0miK05mvKJtJq--20" value="" style="endArrow=classic;html=1;rounded=0;exitX=0.5;exitY=0;exitDx=0;exitDy=0;entryX=0.936;entryY=0.86;entryDx=0;entryDy=0;entryPerimeter=0;" parent="1" source="sWa0SD8Ajx1KSGOqKPP4-14" target="wiPwyt0miK05mvKJtJq--22" edge="1">
          <mxGeometry relative="1" as="geometry">
            <mxPoint x="-211" y="350" as="sourcePoint" />
            <mxPoint x="-130" y="290" as="targetPoint" />
          </mxGeometry>
        </mxCell>
        <mxCell id="wiPwyt0miK05mvKJtJq--21" value="rico:generalDescription" style="edgeLabel;resizable=0;html=1;;align=center;verticalAlign=middle;" parent="wiPwyt0miK05mvKJtJq--20" connectable="0" vertex="1">
          <mxGeometry relative="1" as="geometry">
            <mxPoint x="7" as="offset" />
          </mxGeometry>
        </mxCell>
        <mxCell id="wiPwyt0miK05mvKJtJq--22" value="&lt;div&gt;&lt;span style=&quot;background-color: initial;&quot;&gt;rml:reference&lt;/span&gt;&lt;br&gt;&lt;span style=&quot;background-color: initial;&quot;&gt;&quot;&lt;/span&gt;HOWTO&lt;span style=&quot;background-color: initial;&quot;&gt;&quot;&lt;/span&gt;&lt;/div&gt;" style="html=1;whiteSpace=wrap;rounded=1;arcSize=50;" parent="1" vertex="1">
          <mxGeometry x="-1115" y="570" width="110" height="50" as="geometry" />
        </mxCell>
        <mxCell id="wiPwyt0miK05mvKJtJq--23" value="rr:template&lt;br&gt;&lt;span style=&quot;background-color: initial;&quot;&gt;&quot;&lt;/span&gt;{RICO_VERSION}&lt;span style=&quot;background-color: initial;&quot;&gt;/{&lt;/span&gt;REFD&lt;span style=&quot;background-color: initial;&quot;&gt;}/&lt;/span&gt;Identifier&lt;span style=&quot;background-color: initial;&quot;&gt;/1&quot;&lt;/span&gt;" style="swimlane;fontStyle=0;childLayout=stackLayout;horizontal=1;startSize=26;fillColor=none;horizontalStack=0;resizeParent=1;resizeParentMax=0;resizeLast=0;collapsible=1;marginBottom=0;whiteSpace=wrap;html=1;" parent="1" vertex="1">
          <mxGeometry x="-140" y="-10" width="250" height="52" as="geometry">
            <mxRectangle x="981" y="570" width="50" height="40" as="alternateBounds" />
          </mxGeometry>
        </mxCell>
        <mxCell id="wiPwyt0miK05mvKJtJq--24" value="rico:Identifier&lt;div&gt;&lt;br&gt;&lt;/div&gt;" style="text;strokeColor=none;fillColor=none;align=center;verticalAlign=top;spacingLeft=4;spacingRight=4;overflow=hidden;rotatable=0;points=[[0,0.5],[1,0.5]];portConstraint=eastwest;whiteSpace=wrap;html=1;" parent="wiPwyt0miK05mvKJtJq--23" vertex="1">
          <mxGeometry y="26" width="250" height="26" as="geometry" />
        </mxCell>
        <mxCell id="wiPwyt0miK05mvKJtJq--25" value="" style="endArrow=classic;html=1;rounded=0;exitX=0.25;exitY=0;exitDx=0;exitDy=0;entryX=0.467;entryY=1.051;entryDx=0;entryDy=0;entryPerimeter=0;" parent="1" source="sWa0SD8Ajx1KSGOqKPP4-1" target="wiPwyt0miK05mvKJtJq--24" edge="1">
          <mxGeometry relative="1" as="geometry">
            <mxPoint x="340" y="362" as="sourcePoint" />
            <mxPoint x="260" y="242" as="targetPoint" />
          </mxGeometry>
        </mxCell>
        <mxCell id="wiPwyt0miK05mvKJtJq--26" value="rico:hasOrHadIdentifier" style="edgeLabel;resizable=0;html=1;;align=center;verticalAlign=middle;" parent="wiPwyt0miK05mvKJtJq--25" connectable="0" vertex="1">
          <mxGeometry relative="1" as="geometry">
            <mxPoint x="-33" y="-53" as="offset" />
          </mxGeometry>
        </mxCell>
        <mxCell id="wiPwyt0miK05mvKJtJq--27" value="" style="endArrow=classic;html=1;rounded=0;entryX=0.514;entryY=0.957;entryDx=0;entryDy=0;entryPerimeter=0;exitX=0.334;exitY=0.004;exitDx=0;exitDy=0;exitPerimeter=0;" parent="1" source="sWa0SD8Ajx1KSGOqKPP4-1" target="wiPwyt0miK05mvKJtJq--30" edge="1">
          <mxGeometry relative="1" as="geometry">
            <mxPoint x="330" y="330" as="sourcePoint" />
            <mxPoint x="330" y="36.5" as="targetPoint" />
          </mxGeometry>
        </mxCell>
        <mxCell id="wiPwyt0miK05mvKJtJq--28" value="rico:hasOrHadIdentifier" style="edgeLabel;resizable=0;html=1;;align=center;verticalAlign=middle;" parent="wiPwyt0miK05mvKJtJq--27" connectable="0" vertex="1">
          <mxGeometry relative="1" as="geometry">
            <mxPoint x="-33" y="-53" as="offset" />
          </mxGeometry>
        </mxCell>
        <mxCell id="wiPwyt0miK05mvKJtJq--29" value="rr:template&lt;br&gt;&lt;span style=&quot;background-color: initial;&quot;&gt;&quot;&lt;/span&gt;{RICO_VERSION}&lt;span style=&quot;background-color: initial;&quot;&gt;/{&lt;/span&gt;REFD&lt;span style=&quot;background-color: initial;&quot;&gt;}/&lt;/span&gt;Identifier&lt;span style=&quot;background-color: initial;&quot;&gt;/2&quot;&lt;/span&gt;" style="swimlane;fontStyle=0;childLayout=stackLayout;horizontal=1;startSize=26;fillColor=none;horizontalStack=0;resizeParent=1;resizeParentMax=0;resizeLast=0;collapsible=1;marginBottom=0;whiteSpace=wrap;html=1;" parent="1" vertex="1">
          <mxGeometry x="30" y="-100" width="240" height="52" as="geometry">
            <mxRectangle x="981" y="570" width="50" height="40" as="alternateBounds" />
          </mxGeometry>
        </mxCell>
        <mxCell id="wiPwyt0miK05mvKJtJq--30" value="rico:Identifier&lt;div&gt;&lt;br&gt;&lt;/div&gt;" style="text;strokeColor=none;fillColor=none;align=center;verticalAlign=top;spacingLeft=4;spacingRight=4;overflow=hidden;rotatable=0;points=[[0,0.5],[1,0.5]];portConstraint=eastwest;whiteSpace=wrap;html=1;" parent="wiPwyt0miK05mvKJtJq--29" vertex="1">
          <mxGeometry y="26" width="240" height="26" as="geometry" />
        </mxCell>
        <mxCell id="wiPwyt0miK05mvKJtJq--31" value="" style="endArrow=classic;html=1;rounded=0;exitX=0.434;exitY=-0.017;exitDx=0;exitDy=0;exitPerimeter=0;entryX=0.699;entryY=1.06;entryDx=0;entryDy=0;entryPerimeter=0;" parent="1" source="wiPwyt0miK05mvKJtJq--23" target="wiPwyt0miK05mvKJtJq--34" edge="1">
          <mxGeometry relative="1" as="geometry">
            <mxPoint x="-180" y="-150" as="sourcePoint" />
            <mxPoint x="-40" y="-140" as="targetPoint" />
          </mxGeometry>
        </mxCell>
        <mxCell id="wiPwyt0miK05mvKJtJq--32" value="rico:hasIdentifierType" style="edgeLabel;resizable=0;html=1;;align=center;verticalAlign=middle;" parent="wiPwyt0miK05mvKJtJq--31" connectable="0" vertex="1">
          <mxGeometry relative="1" as="geometry" />
        </mxCell>
        <mxCell id="wiPwyt0miK05mvKJtJq--33" value="rr:constant&lt;br&gt;&lt;span style=&quot;background-color: initial;&quot;&gt;&quot;https://data.archives.gov.on.ca/Schema/Description-Listings/&lt;/span&gt;IdentifierType&lt;span style=&quot;background-color: initial;&quot;&gt;/&lt;/span&gt;Current Reference Code&lt;span style=&quot;background-color: initial;&quot;&gt;&quot;&lt;/span&gt;" style="swimlane;fontStyle=0;childLayout=stackLayout;horizontal=1;startSize=26;fillColor=none;horizontalStack=0;resizeParent=1;resizeParentMax=0;resizeLast=0;collapsible=1;marginBottom=0;whiteSpace=wrap;html=1;strokeColor=#FF0000;" parent="1" vertex="1">
          <mxGeometry x="-620" y="-285" width="560" height="52" as="geometry">
            <mxRectangle x="981" y="570" width="50" height="40" as="alternateBounds" />
          </mxGeometry>
        </mxCell>
        <mxCell id="wiPwyt0miK05mvKJtJq--34" value="rico:IdentifierType&lt;div&gt;&lt;br&gt;&lt;/div&gt;" style="text;strokeColor=none;fillColor=none;align=center;verticalAlign=top;spacingLeft=4;spacingRight=4;overflow=hidden;rotatable=0;points=[[0,0.5],[1,0.5]];portConstraint=eastwest;whiteSpace=wrap;html=1;" parent="wiPwyt0miK05mvKJtJq--33" vertex="1">
          <mxGeometry y="26" width="560" height="26" as="geometry" />
        </mxCell>
        <mxCell id="wiPwyt0miK05mvKJtJq--35" value="" style="endArrow=classic;html=1;rounded=0;exitX=0.5;exitY=0;exitDx=0;exitDy=0;entryX=0.377;entryY=1.026;entryDx=0;entryDy=0;entryPerimeter=0;" parent="1" source="wiPwyt0miK05mvKJtJq--29" target="wiPwyt0miK05mvKJtJq--38" edge="1">
          <mxGeometry relative="1" as="geometry">
            <mxPoint x="150" y="-120" as="sourcePoint" />
            <mxPoint x="110" y="-180" as="targetPoint" />
          </mxGeometry>
        </mxCell>
        <mxCell id="wiPwyt0miK05mvKJtJq--36" value="rico:hasIdentifierType" style="edgeLabel;resizable=0;html=1;;align=center;verticalAlign=middle;" parent="wiPwyt0miK05mvKJtJq--35" connectable="0" vertex="1">
          <mxGeometry relative="1" as="geometry" />
        </mxCell>
        <mxCell id="wiPwyt0miK05mvKJtJq--37" value="rr:constant&lt;br&gt;&lt;span style=&quot;background-color: initial;&quot;&gt;&quot;https://data.archives.gov.on.ca/Schema/Description-Listings/&lt;/span&gt;IdentifierType&lt;span style=&quot;background-color: initial;&quot;&gt;/&lt;/span&gt;Former Code&lt;span style=&quot;background-color: initial;&quot;&gt;&quot;&lt;/span&gt;" style="swimlane;fontStyle=0;childLayout=stackLayout;horizontal=1;startSize=26;fillColor=none;horizontalStack=0;resizeParent=1;resizeParentMax=0;resizeLast=0;collapsible=1;marginBottom=0;whiteSpace=wrap;html=1;strokeColor=#FF0000;" parent="1" vertex="1">
          <mxGeometry x="-200" y="-370" width="490" height="52" as="geometry">
            <mxRectangle x="981" y="570" width="50" height="40" as="alternateBounds" />
          </mxGeometry>
        </mxCell>
        <mxCell id="wiPwyt0miK05mvKJtJq--38" value="rico:IdentifierType&lt;div&gt;&lt;br&gt;&lt;/div&gt;" style="text;strokeColor=none;fillColor=none;align=center;verticalAlign=top;spacingLeft=4;spacingRight=4;overflow=hidden;rotatable=0;points=[[0,0.5],[1,0.5]];portConstraint=eastwest;whiteSpace=wrap;html=1;" parent="wiPwyt0miK05mvKJtJq--37" vertex="1">
          <mxGeometry y="26" width="490" height="26" as="geometry" />
        </mxCell>
        <mxCell id="wiPwyt0miK05mvKJtJq--53" value="" style="endArrow=classic;html=1;rounded=0;entryX=0;entryY=-0.013;entryDx=0;entryDy=0;entryPerimeter=0;exitX=1.002;exitY=0.115;exitDx=0;exitDy=0;exitPerimeter=0;" parent="1" source="sWa0SD8Ajx1KSGOqKPP4-1" target="wiPwyt0miK05mvKJtJq--56" edge="1">
          <mxGeometry relative="1" as="geometry">
            <mxPoint x="500" y="370" as="sourcePoint" />
            <mxPoint x="800" y="240" as="targetPoint" />
          </mxGeometry>
        </mxCell>
        <mxCell id="wiPwyt0miK05mvKJtJq--54" value="rico:isOrWasDescribedBy" style="edgeLabel;resizable=0;html=1;;align=center;verticalAlign=middle;" parent="wiPwyt0miK05mvKJtJq--53" connectable="0" vertex="1">
          <mxGeometry relative="1" as="geometry" />
        </mxCell>
        <mxCell id="wiPwyt0miK05mvKJtJq--55" value="rr:template&lt;div&gt;&lt;span style=&quot;background-color: initial;&quot;&gt;&quot;&lt;/span&gt;{RICO_VERSION}&lt;span style=&quot;background-color: initial;&quot;&gt;/{&lt;/span&gt;&lt;span style=&quot;background-color: initial;&quot;&gt;REFD}/Record/1&quot;&lt;/span&gt;&lt;/div&gt;" style="swimlane;fontStyle=0;childLayout=stackLayout;horizontal=1;startSize=26;fillColor=none;horizontalStack=0;resizeParent=1;resizeParentMax=0;resizeLast=0;collapsible=1;marginBottom=0;whiteSpace=wrap;html=1;strokeColor=#FF0000;" parent="1" vertex="1">
          <mxGeometry x="770" y="223" width="240" height="52" as="geometry" />
        </mxCell>
        <mxCell id="wiPwyt0miK05mvKJtJq--56" value="rico:Record" style="text;strokeColor=none;fillColor=none;align=center;verticalAlign=top;spacingLeft=4;spacingRight=4;overflow=hidden;rotatable=0;points=[[0,0.5],[1,0.5]];portConstraint=eastwest;whiteSpace=wrap;html=1;" parent="wiPwyt0miK05mvKJtJq--55" vertex="1">
          <mxGeometry y="26" width="240" height="26" as="geometry" />
        </mxCell>
        <mxCell id="wiPwyt0miK05mvKJtJq--71" value="" style="endArrow=classic;html=1;rounded=0;exitX=0.409;exitY=-0.003;exitDx=0;exitDy=0;exitPerimeter=0;entryX=0.518;entryY=1.085;entryDx=0;entryDy=0;entryPerimeter=0;" parent="1" source="sWa0SD8Ajx1KSGOqKPP4-1" target="wiPwyt0miK05mvKJtJq--74" edge="1">
          <mxGeometry relative="1" as="geometry">
            <mxPoint x="350" y="210" as="sourcePoint" />
            <mxPoint x="210" y="-240" as="targetPoint" />
          </mxGeometry>
        </mxCell>
        <mxCell id="wiPwyt0miK05mvKJtJq--72" value="rico:hasCreator" style="edgeLabel;resizable=0;html=1;;align=center;verticalAlign=middle;" parent="wiPwyt0miK05mvKJtJq--71" connectable="0" vertex="1">
          <mxGeometry relative="1" as="geometry">
            <mxPoint x="-11" y="-52" as="offset" />
          </mxGeometry>
        </mxCell>
        <mxCell id="wiPwyt0miK05mvKJtJq--73" value="rr:template&lt;div&gt;&quot;{RICO_VERSION}/{INDEXPROV}/Thing/1&quot;&lt;/div&gt;" style="swimlane;fontStyle=0;childLayout=stackLayout;horizontal=1;startSize=26;fillColor=none;horizontalStack=0;resizeParent=1;resizeParentMax=0;resizeLast=0;collapsible=1;marginBottom=0;whiteSpace=wrap;html=1;strokeColor=#FF0000;" parent="1" vertex="1">
          <mxGeometry x="290" y="-120" width="250" height="52" as="geometry" />
        </mxCell>
        <mxCell id="wiPwyt0miK05mvKJtJq--74" value="rico:Agent" style="text;strokeColor=none;fillColor=none;align=center;verticalAlign=top;spacingLeft=4;spacingRight=4;overflow=hidden;rotatable=0;points=[[0,0.5],[1,0.5]];portConstraint=eastwest;whiteSpace=wrap;html=1;" parent="wiPwyt0miK05mvKJtJq--73" vertex="1">
          <mxGeometry y="26" width="250" height="26" as="geometry" />
        </mxCell>
        <mxCell id="Pa1L8ZfUJXBHrEYyGiSI-1" value="&lt;div&gt;rr:template&lt;br&gt;&lt;span style=&quot;background-color: initial;&quot;&gt;&quot;&lt;/span&gt;{RICO_VERSION}&lt;span style=&quot;background-color: initial;&quot;&gt;/{&lt;/span&gt;REFD&lt;span style=&quot;background-color: initial;&quot;&gt;}/Title/1&quot;&lt;/span&gt;&lt;/div&gt;" style="swimlane;fontStyle=0;childLayout=stackLayout;horizontal=1;startSize=26;fillColor=none;horizontalStack=0;resizeParent=1;resizeParentMax=0;resizeLast=0;collapsible=1;marginBottom=0;whiteSpace=wrap;html=1;" parent="1" vertex="1">
          <mxGeometry x="450" y="-230" width="230" height="52" as="geometry">
            <mxRectangle x="981" y="570" width="50" height="40" as="alternateBounds" />
          </mxGeometry>
        </mxCell>
        <mxCell id="Pa1L8ZfUJXBHrEYyGiSI-2" value="rico:Title&lt;div&gt;&lt;br&gt;&lt;/div&gt;" style="text;strokeColor=none;fillColor=none;align=center;verticalAlign=top;spacingLeft=4;spacingRight=4;overflow=hidden;rotatable=0;points=[[0,0.5],[1,0.5]];portConstraint=eastwest;whiteSpace=wrap;html=1;" parent="Pa1L8ZfUJXBHrEYyGiSI-1" vertex="1">
          <mxGeometry y="26" width="230" height="26" as="geometry" />
        </mxCell>
        <mxCell id="Pa1L8ZfUJXBHrEYyGiSI-3" value="" style="endArrow=classic;html=1;rounded=0;exitX=0.653;exitY=-0.003;exitDx=0;exitDy=0;exitPerimeter=0;entryX=0.513;entryY=1.026;entryDx=0;entryDy=0;entryPerimeter=0;" parent="1" source="sWa0SD8Ajx1KSGOqKPP4-1" target="Pa1L8ZfUJXBHrEYyGiSI-2" edge="1">
          <mxGeometry relative="1" as="geometry">
            <mxPoint x="380" y="330" as="sourcePoint" />
            <mxPoint x="380" y="230.00000000000023" as="targetPoint" />
          </mxGeometry>
        </mxCell>
        <mxCell id="Pa1L8ZfUJXBHrEYyGiSI-4" value="rico:hasOrHadTitle" style="edgeLabel;resizable=0;html=1;;align=center;verticalAlign=middle;" parent="Pa1L8ZfUJXBHrEYyGiSI-3" connectable="0" vertex="1">
          <mxGeometry relative="1" as="geometry">
            <mxPoint x="54" y="-98" as="offset" />
          </mxGeometry>
        </mxCell>
        <mxCell id="Pa1L8ZfUJXBHrEYyGiSI-5" value="" style="endArrow=classic;html=1;rounded=0;exitX=0.714;exitY=0.01;exitDx=0;exitDy=0;exitPerimeter=0;entryX=0.489;entryY=1.013;entryDx=0;entryDy=0;entryPerimeter=0;" parent="1" source="sWa0SD8Ajx1KSGOqKPP4-1" target="Pa1L8ZfUJXBHrEYyGiSI-8" edge="1">
          <mxGeometry relative="1" as="geometry">
            <mxPoint x="390" y="350" as="sourcePoint" />
            <mxPoint x="560" y="100" as="targetPoint" />
          </mxGeometry>
        </mxCell>
        <mxCell id="Pa1L8ZfUJXBHrEYyGiSI-6" value="rico:hasOrHadSubject" style="edgeLabel;resizable=0;html=1;;align=center;verticalAlign=middle;" parent="Pa1L8ZfUJXBHrEYyGiSI-5" connectable="0" vertex="1">
          <mxGeometry relative="1" as="geometry">
            <mxPoint x="30" y="-24" as="offset" />
          </mxGeometry>
        </mxCell>
        <mxCell id="Pa1L8ZfUJXBHrEYyGiSI-7" value="&lt;div&gt;&lt;span style=&quot;background-color: initial;&quot;&gt;rr:template&lt;br&gt;&lt;/span&gt;&lt;span style=&quot;background-color: initial;&quot;&gt;&quot;&lt;/span&gt;{RICO_VERSION}&lt;span style=&quot;background-color: initial;&quot;&gt;/{INDEXSUB}/Thing/1&quot;&lt;/span&gt;&lt;/div&gt;" style="swimlane;fontStyle=0;childLayout=stackLayout;horizontal=1;startSize=26;fillColor=none;horizontalStack=0;resizeParent=1;resizeParentMax=0;resizeLast=0;collapsible=1;marginBottom=0;whiteSpace=wrap;html=1;strokeColor=#FF0000;" parent="1" vertex="1">
          <mxGeometry x="580" y="-80" width="240" height="52" as="geometry" />
        </mxCell>
        <mxCell id="Pa1L8ZfUJXBHrEYyGiSI-8" value="rico:Agent" style="text;strokeColor=none;fillColor=none;align=center;verticalAlign=top;spacingLeft=4;spacingRight=4;overflow=hidden;rotatable=0;points=[[0,0.5],[1,0.5]];portConstraint=eastwest;whiteSpace=wrap;html=1;" parent="Pa1L8ZfUJXBHrEYyGiSI-7" vertex="1">
          <mxGeometry y="26" width="240" height="26" as="geometry" />
        </mxCell>
        <mxCell id="Pa1L8ZfUJXBHrEYyGiSI-9" value="&lt;div&gt;rr:template&lt;br&gt;&lt;span style=&quot;background-color: initial;&quot;&gt;&quot;{&lt;/span&gt;&lt;span style=&quot;background-color: initial;&quot;&gt;RICO_VERSION}&lt;/span&gt;&lt;span style=&quot;background-color: initial;&quot;&gt;/{&lt;/span&gt;&lt;span style=&quot;background-color: initial;&quot;&gt;INDEXGEO}/Thing/1&lt;/span&gt;&lt;span style=&quot;background-color: initial;&quot;&gt;&quot;&lt;/span&gt;&lt;/div&gt;" style="swimlane;fontStyle=0;childLayout=stackLayout;horizontal=1;startSize=26;fillColor=none;horizontalStack=0;resizeParent=1;resizeParentMax=0;resizeLast=0;collapsible=1;marginBottom=0;whiteSpace=wrap;html=1;" parent="1" vertex="1">
          <mxGeometry x="630" y="50" width="270" height="52" as="geometry" />
        </mxCell>
        <mxCell id="Pa1L8ZfUJXBHrEYyGiSI-10" value="rico:Place" style="text;strokeColor=none;fillColor=none;align=center;verticalAlign=top;spacingLeft=4;spacingRight=4;overflow=hidden;rotatable=0;points=[[0,0.5],[1,0.5]];portConstraint=eastwest;whiteSpace=wrap;html=1;" parent="Pa1L8ZfUJXBHrEYyGiSI-9" vertex="1">
          <mxGeometry y="26" width="270" height="26" as="geometry" />
        </mxCell>
        <mxCell id="Pa1L8ZfUJXBHrEYyGiSI-11" value="" style="endArrow=classic;html=1;rounded=0;exitX=0.918;exitY=-0.013;exitDx=0;exitDy=0;exitPerimeter=0;entryX=0.4;entryY=1.051;entryDx=0;entryDy=0;entryPerimeter=0;" parent="1" source="sWa0SD8Ajx1KSGOqKPP4-1" target="Pa1L8ZfUJXBHrEYyGiSI-10" edge="1">
          <mxGeometry relative="1" as="geometry">
            <mxPoint x="530" y="240" as="sourcePoint" />
            <mxPoint x="700" y="120" as="targetPoint" />
          </mxGeometry>
        </mxCell>
        <mxCell id="Pa1L8ZfUJXBHrEYyGiSI-12" value="rico:isAssociatedWithPlace" style="edgeLabel;resizable=0;html=1;;align=center;verticalAlign=middle;" parent="Pa1L8ZfUJXBHrEYyGiSI-11" connectable="0" vertex="1">
          <mxGeometry relative="1" as="geometry">
            <mxPoint x="118" y="-85" as="offset" />
          </mxGeometry>
        </mxCell>
        <mxCell id="JUvVhaggt__ALHUesofw-1" value="rr:constant&lt;div&gt;&lt;span style=&quot;background-color: initial;&quot;&gt;&quot;https://data.archives.gov.on.ca/Schema/Description-Listings/&lt;/span&gt;&lt;span style=&quot;background-color: initial;&quot;&gt;DocumentaryFormType/&lt;/span&gt;&lt;span style=&quot;background-color: initial;&quot;&gt;Archival&amp;nbsp;&lt;/span&gt;&lt;span style=&quot;background-color: initial;&quot;&gt;Description&lt;/span&gt;&lt;span style=&quot;background-color: initial;&quot;&gt;&quot;&lt;/span&gt;&lt;/div&gt;" style="swimlane;fontStyle=0;childLayout=stackLayout;horizontal=1;startSize=26;fillColor=none;horizontalStack=0;resizeParent=1;resizeParentMax=0;resizeLast=0;collapsible=1;marginBottom=0;whiteSpace=wrap;html=1;strokeColor=#FF0000;" parent="1" vertex="1">
          <mxGeometry x="820" y="-312" width="610" height="52" as="geometry">
            <mxRectangle x="981" y="570" width="50" height="40" as="alternateBounds" />
          </mxGeometry>
        </mxCell>
        <mxCell id="JUvVhaggt__ALHUesofw-2" value="rico:DocumentaryFormType&lt;div&gt;&lt;br&gt;&lt;/div&gt;" style="text;strokeColor=none;fillColor=none;align=center;verticalAlign=top;spacingLeft=4;spacingRight=4;overflow=hidden;rotatable=0;points=[[0,0.5],[1,0.5]];portConstraint=eastwest;whiteSpace=wrap;html=1;" parent="JUvVhaggt__ALHUesofw-1" vertex="1">
          <mxGeometry y="26" width="610" height="26" as="geometry" />
        </mxCell>
        <mxCell id="JUvVhaggt__ALHUesofw-3" value="" style="endArrow=classic;html=1;rounded=0;exitX=0.5;exitY=0;exitDx=0;exitDy=0;entryX=0.223;entryY=1.115;entryDx=0;entryDy=0;entryPerimeter=0;" parent="1" source="wiPwyt0miK05mvKJtJq--55" target="JUvVhaggt__ALHUesofw-2" edge="1">
          <mxGeometry relative="1" as="geometry">
            <mxPoint x="870" y="220" as="sourcePoint" />
            <mxPoint x="850" y="-20" as="targetPoint" />
          </mxGeometry>
        </mxCell>
        <mxCell id="JUvVhaggt__ALHUesofw-4" value="rico:hasDocumentaryFormType" style="edgeLabel;resizable=0;html=1;;align=center;verticalAlign=middle;" parent="JUvVhaggt__ALHUesofw-3" connectable="0" vertex="1">
          <mxGeometry relative="1" as="geometry">
            <mxPoint x="-18" y="-93" as="offset" />
          </mxGeometry>
        </mxCell>
        <mxCell id="JUvVhaggt__ALHUesofw-5" value="" style="endArrow=classic;html=1;rounded=0;entryX=0.543;entryY=1.004;entryDx=0;entryDy=0;entryPerimeter=0;exitX=0.75;exitY=0;exitDx=0;exitDy=0;" parent="1" source="wiPwyt0miK05mvKJtJq--55" target="JUvVhaggt__ALHUesofw-10" edge="1">
          <mxGeometry relative="1" as="geometry">
            <mxPoint x="900" y="190" as="sourcePoint" />
            <mxPoint x="980" y="-60" as="targetPoint" />
          </mxGeometry>
        </mxCell>
        <mxCell id="JUvVhaggt__ALHUesofw-6" value="rico:hasRecordState" style="edgeLabel;resizable=0;html=1;;align=center;verticalAlign=middle;" parent="JUvVhaggt__ALHUesofw-5" connectable="0" vertex="1">
          <mxGeometry relative="1" as="geometry">
            <mxPoint x="20" y="-52" as="offset" />
          </mxGeometry>
        </mxCell>
        <mxCell id="JUvVhaggt__ALHUesofw-7" value="" style="endArrow=classic;html=1;rounded=0;exitX=1;exitY=0;exitDx=0;exitDy=0;entryX=0;entryY=0.5;entryDx=0;entryDy=0;" parent="1" source="wiPwyt0miK05mvKJtJq--55" target="JUvVhaggt__ALHUesofw-11" edge="1">
          <mxGeometry relative="1" as="geometry">
            <mxPoint x="1010" y="156" as="sourcePoint" />
            <mxPoint x="1130" y="100" as="targetPoint" />
          </mxGeometry>
        </mxCell>
        <mxCell id="JUvVhaggt__ALHUesofw-8" value="rico:hasRecordState" style="edgeLabel;resizable=0;html=1;;align=center;verticalAlign=middle;" parent="JUvVhaggt__ALHUesofw-7" connectable="0" vertex="1">
          <mxGeometry relative="1" as="geometry">
            <mxPoint x="30" y="-29" as="offset" />
          </mxGeometry>
        </mxCell>
        <mxCell id="JUvVhaggt__ALHUesofw-9" value="rr:template&lt;div&gt;&lt;span style=&quot;background-color: initial;&quot;&gt;&quot;Schema&lt;/span&gt;&lt;span style=&quot;background-color: initial;&quot;&gt;/Description-Listings/RecordState/Status/{&lt;/span&gt;STATUSD&lt;span style=&quot;background-color: initial;&quot;&gt;}&quot;&lt;/span&gt;&lt;/div&gt;" style="swimlane;fontStyle=0;childLayout=stackLayout;horizontal=1;startSize=26;fillColor=none;horizontalStack=0;resizeParent=1;resizeParentMax=0;resizeLast=0;collapsible=1;marginBottom=0;whiteSpace=wrap;html=1;" parent="1" vertex="1">
          <mxGeometry x="1000" y="-138" width="390" height="52" as="geometry">
            <mxRectangle x="981" y="570" width="50" height="40" as="alternateBounds" />
          </mxGeometry>
        </mxCell>
        <mxCell id="JUvVhaggt__ALHUesofw-10" value="rico:RecordState&lt;div&gt;&lt;br&gt;&lt;/div&gt;" style="text;strokeColor=none;fillColor=none;align=center;verticalAlign=top;spacingLeft=4;spacingRight=4;overflow=hidden;rotatable=0;points=[[0,0.5],[1,0.5]];portConstraint=eastwest;whiteSpace=wrap;html=1;" parent="JUvVhaggt__ALHUesofw-9" vertex="1">
          <mxGeometry y="26" width="390" height="26" as="geometry" />
        </mxCell>
        <mxCell id="JUvVhaggt__ALHUesofw-11" value="rr:template&lt;div&gt;&lt;span style=&quot;background-color: initial;&quot;&gt;&quot;Schema&lt;/span&gt;&lt;span style=&quot;background-color: initial;&quot;&gt;/Description-Listings/RecordState/Web%20Enabled/{&lt;/span&gt;WEBD&lt;span style=&quot;background-color: initial;&quot;&gt;}&quot;&lt;/span&gt;&lt;/div&gt;" style="swimlane;fontStyle=0;childLayout=stackLayout;horizontal=1;startSize=26;fillColor=none;horizontalStack=0;resizeParent=1;resizeParentMax=0;resizeLast=0;collapsible=1;marginBottom=0;whiteSpace=wrap;html=1;" parent="1" vertex="1">
          <mxGeometry x="1270" y="13" width="420" height="52" as="geometry">
            <mxRectangle x="981" y="570" width="50" height="40" as="alternateBounds" />
          </mxGeometry>
        </mxCell>
        <mxCell id="JUvVhaggt__ALHUesofw-12" value="rico:RecordState&lt;div&gt;&lt;br&gt;&lt;/div&gt;" style="text;strokeColor=none;fillColor=none;align=center;verticalAlign=top;spacingLeft=4;spacingRight=4;overflow=hidden;rotatable=0;points=[[0,0.5],[1,0.5]];portConstraint=eastwest;whiteSpace=wrap;html=1;" parent="JUvVhaggt__ALHUesofw-11" vertex="1">
          <mxGeometry y="26" width="420" height="26" as="geometry" />
        </mxCell>
        <mxCell id="lszSfj4lrEIONad0Ssyt-1" value="&lt;div&gt;&lt;span style=&quot;background-color: initial;&quot;&gt;rr:template&lt;/span&gt;&lt;/div&gt;&lt;div&gt;&lt;span style=&quot;background-color: initial;&quot;&gt;&quot;Schema&lt;/span&gt;&lt;span style=&quot;background-color: initial;&quot;&gt;/Description-Listings/&lt;/span&gt;ContentType&lt;span style=&quot;background-color: initial;&quot;&gt;/{&lt;/span&gt;GMD&lt;span style=&quot;background-color: initial;&quot;&gt;}&quot;&lt;/span&gt;&lt;/div&gt;" style="swimlane;fontStyle=0;childLayout=stackLayout;horizontal=1;startSize=26;fillColor=none;horizontalStack=0;resizeParent=1;resizeParentMax=0;resizeLast=0;collapsible=1;marginBottom=0;whiteSpace=wrap;html=1;" parent="1" vertex="1">
          <mxGeometry x="-300" y="728" width="278" height="52" as="geometry">
            <mxRectangle x="981" y="570" width="50" height="40" as="alternateBounds" />
          </mxGeometry>
        </mxCell>
        <mxCell id="lszSfj4lrEIONad0Ssyt-2" value="rico:ContentType&lt;div&gt;&lt;br&gt;&lt;/div&gt;" style="text;strokeColor=none;fillColor=none;align=center;verticalAlign=top;spacingLeft=4;spacingRight=4;overflow=hidden;rotatable=0;points=[[0,0.5],[1,0.5]];portConstraint=eastwest;whiteSpace=wrap;html=1;" parent="lszSfj4lrEIONad0Ssyt-1" vertex="1">
          <mxGeometry y="26" width="278" height="26" as="geometry" />
        </mxCell>
        <mxCell id="lszSfj4lrEIONad0Ssyt-3" value="" style="endArrow=classic;html=1;rounded=0;exitX=0.123;exitY=1;exitDx=0;exitDy=0;exitPerimeter=0;entryX=1;entryY=0.25;entryDx=0;entryDy=0;" parent="1" source="sWa0SD8Ajx1KSGOqKPP4-2" target="lszSfj4lrEIONad0Ssyt-1" edge="1">
          <mxGeometry relative="1" as="geometry">
            <mxPoint x="64.5" y="634" as="sourcePoint" />
            <mxPoint x="-75.5" y="764" as="targetPoint" />
          </mxGeometry>
        </mxCell>
        <mxCell id="lszSfj4lrEIONad0Ssyt-4" value="rico:hasContentOfType" style="edgeLabel;resizable=0;html=1;;align=center;verticalAlign=middle;" parent="lszSfj4lrEIONad0Ssyt-3" connectable="0" vertex="1">
          <mxGeometry relative="1" as="geometry">
            <mxPoint x="-76" y="52" as="offset" />
          </mxGeometry>
        </mxCell>
        <mxCell id="NtwbBurvTleTFVB1CDUG-1" value="" style="endArrow=classic;html=1;rounded=0;exitX=0.005;exitY=0.904;exitDx=0;exitDy=0;exitPerimeter=0;entryX=1;entryY=0.25;entryDx=0;entryDy=0;" parent="1" source="sWa0SD8Ajx1KSGOqKPP4-2" target="NtwbBurvTleTFVB1CDUG-3" edge="1">
          <mxGeometry relative="1" as="geometry">
            <mxPoint x="105" y="510" as="sourcePoint" />
            <mxPoint x="-100" y="620" as="targetPoint" />
          </mxGeometry>
        </mxCell>
        <mxCell id="NtwbBurvTleTFVB1CDUG-2" value="rico:generalDescription" style="edgeLabel;resizable=0;html=1;;align=center;verticalAlign=middle;" parent="NtwbBurvTleTFVB1CDUG-1" connectable="0" vertex="1">
          <mxGeometry relative="1" as="geometry">
            <mxPoint x="-63" y="28" as="offset" />
          </mxGeometry>
        </mxCell>
        <mxCell id="NtwbBurvTleTFVB1CDUG-3" value="&lt;div&gt;&lt;div&gt;&lt;span style=&quot;background-color: initial;&quot;&gt;rml:reference&lt;/span&gt;&lt;br&gt;&lt;/div&gt;&lt;span style=&quot;background-color: initial;&quot;&gt;&quot;&lt;/span&gt;&lt;span style=&quot;background-color: initial;&quot;&gt;A&lt;/span&gt;VAIL&lt;span style=&quot;background-color: initial;&quot;&gt;&quot;&lt;/span&gt;&lt;/div&gt;" style="html=1;whiteSpace=wrap;rounded=1;arcSize=50;" parent="1" vertex="1">
          <mxGeometry x="-240" y="618" width="125" height="60" as="geometry" />
        </mxCell>
        <mxCell id="NtwbBurvTleTFVB1CDUG-4" value="&lt;div&gt;rml:reference&lt;br&gt;&lt;span style=&quot;background-color: initial;&quot;&gt;&quot;&lt;/span&gt;RELMAT&lt;span style=&quot;background-color: initial;&quot;&gt;&quot;&lt;/span&gt;&lt;/div&gt;" style="html=1;whiteSpace=wrap;rounded=1;arcSize=50;" parent="1" vertex="1">
          <mxGeometry x="930" y="668" width="110" height="50" as="geometry" />
        </mxCell>
        <mxCell id="NtwbBurvTleTFVB1CDUG-5" value="&lt;div&gt;rml:reference&lt;br&gt;&lt;span style=&quot;background-color: initial;&quot;&gt;&quot;&lt;/span&gt;ASSMAT&lt;span style=&quot;background-color: initial;&quot;&gt;&quot;&lt;/span&gt;&lt;/div&gt;" style="html=1;whiteSpace=wrap;rounded=1;arcSize=50;" parent="1" vertex="1">
          <mxGeometry x="760" y="690" width="130" height="60" as="geometry" />
        </mxCell>
        <mxCell id="NtwbBurvTleTFVB1CDUG-6" value="" style="endArrow=classic;html=1;rounded=0;entryX=0.145;entryY=0.005;entryDx=0;entryDy=0;entryPerimeter=0;exitX=1.005;exitY=0.808;exitDx=0;exitDy=0;exitPerimeter=0;" parent="1" source="sWa0SD8Ajx1KSGOqKPP4-2" target="NtwbBurvTleTFVB1CDUG-4" edge="1">
          <mxGeometry relative="1" as="geometry">
            <mxPoint x="460" y="430" as="sourcePoint" />
            <mxPoint x="1220" y="679" as="targetPoint" />
          </mxGeometry>
        </mxCell>
        <mxCell id="NtwbBurvTleTFVB1CDUG-7" value="rico:generalDescription" style="edgeLabel;resizable=0;html=1;;align=center;verticalAlign=middle;" parent="NtwbBurvTleTFVB1CDUG-6" connectable="0" vertex="1">
          <mxGeometry relative="1" as="geometry">
            <mxPoint x="114" y="46" as="offset" />
          </mxGeometry>
        </mxCell>
        <mxCell id="NtwbBurvTleTFVB1CDUG-8" value="" style="endArrow=classic;html=1;rounded=0;entryX=0.173;entryY=0.017;entryDx=0;entryDy=0;entryPerimeter=0;exitX=0.998;exitY=0.971;exitDx=0;exitDy=0;exitPerimeter=0;" parent="1" source="sWa0SD8Ajx1KSGOqKPP4-2" target="NtwbBurvTleTFVB1CDUG-5" edge="1">
          <mxGeometry relative="1" as="geometry">
            <mxPoint x="440" y="430" as="sourcePoint" />
            <mxPoint x="1061.5" y="758" as="targetPoint" />
          </mxGeometry>
        </mxCell>
        <mxCell id="NtwbBurvTleTFVB1CDUG-9" value="rico:generalDescription" style="edgeLabel;resizable=0;html=1;;align=center;verticalAlign=middle;" parent="NtwbBurvTleTFVB1CDUG-8" connectable="0" vertex="1">
          <mxGeometry relative="1" as="geometry">
            <mxPoint x="20" as="offset" />
          </mxGeometry>
        </mxCell>
        <mxCell id="hDRFmwmGqqun0fTEbF33-1" value="" style="endArrow=classic;html=1;rounded=0;exitX=0;exitY=0.25;exitDx=0;exitDy=0;entryX=0.985;entryY=0.733;entryDx=0;entryDy=0;entryPerimeter=0;" parent="1" source="sWa0SD8Ajx1KSGOqKPP4-1" target="hDRFmwmGqqun0fTEbF33-3" edge="1">
          <mxGeometry relative="1" as="geometry">
            <mxPoint x="-90" y="310" as="sourcePoint" />
            <mxPoint x="10" y="290" as="targetPoint" />
          </mxGeometry>
        </mxCell>
        <mxCell id="hDRFmwmGqqun0fTEbF33-2" value="rico:creationDate" style="edgeLabel;resizable=0;html=1;;align=center;verticalAlign=middle;" parent="hDRFmwmGqqun0fTEbF33-1" connectable="0" vertex="1">
          <mxGeometry relative="1" as="geometry" />
        </mxCell>
        <mxCell id="hDRFmwmGqqun0fTEbF33-3" value="&lt;div&gt;&lt;span style=&quot;background-color: initial;&quot;&gt;rml:reference&lt;/span&gt;&lt;br&gt;&lt;span style=&quot;background-color: initial;&quot;&gt;&quot;&lt;/span&gt;DATECR&lt;span style=&quot;background-color: initial;&quot;&gt;&quot;&lt;/span&gt;&lt;/div&gt;" style="html=1;whiteSpace=wrap;rounded=1;arcSize=50;" parent="1" vertex="1">
          <mxGeometry x="-395" y="275" width="110" height="50" as="geometry" />
        </mxCell>
        <mxCell id="qJwiYtpHSBwsKD2Hf-6o-1" value="" style="endArrow=classic;html=1;rounded=0;exitX=1.006;exitY=0.423;exitDx=0;exitDy=0;exitPerimeter=0;entryX=0;entryY=0.5;entryDx=0;entryDy=0;" parent="1" source="sWa0SD8Ajx1KSGOqKPP4-1" target="qJwiYtpHSBwsKD2Hf-6o-3" edge="1">
          <mxGeometry relative="1" as="geometry">
            <mxPoint x="630" y="420" as="sourcePoint" />
            <mxPoint x="940" y="420" as="targetPoint" />
          </mxGeometry>
        </mxCell>
        <mxCell id="qJwiYtpHSBwsKD2Hf-6o-2" value="rico:history" style="edgeLabel;resizable=0;html=1;;align=center;verticalAlign=middle;" parent="qJwiYtpHSBwsKD2Hf-6o-1" connectable="0" vertex="1">
          <mxGeometry relative="1" as="geometry" />
        </mxCell>
        <mxCell id="qJwiYtpHSBwsKD2Hf-6o-3" value="&lt;div&gt;rml:reference&lt;br&gt;&lt;span style=&quot;background-color: initial;&quot;&gt;&quot;&lt;/span&gt;ADMBIO&lt;span style=&quot;background-color: initial;&quot;&gt;&quot;&lt;/span&gt;&lt;/div&gt;" style="html=1;whiteSpace=wrap;rounded=1;arcSize=50;" parent="1" vertex="1">
          <mxGeometry x="1090" y="390" width="110" height="50" as="geometry" />
        </mxCell>
        <mxCell id="Y8udmLn4DJvaPjTo5dh8-1" value="" style="endArrow=classic;html=1;rounded=0;exitX=0.157;exitY=0.004;exitDx=0;exitDy=0;exitPerimeter=0;entryX=0.618;entryY=1.031;entryDx=0;entryDy=0;entryPerimeter=0;" parent="1" source="sWa0SD8Ajx1KSGOqKPP4-1" target="Y8udmLn4DJvaPjTo5dh8-4" edge="1">
          <mxGeometry relative="1" as="geometry">
            <mxPoint x="194" y="275" as="sourcePoint" />
            <mxPoint x="-480" y="-150" as="targetPoint" />
          </mxGeometry>
        </mxCell>
        <mxCell id="Y8udmLn4DJvaPjTo5dh8-2" value="rico:isDirectlyIncludedIn" style="edgeLabel;resizable=0;html=1;;align=center;verticalAlign=middle;" parent="Y8udmLn4DJvaPjTo5dh8-1" connectable="0" vertex="1">
          <mxGeometry relative="1" as="geometry" />
        </mxCell>
        <mxCell id="Y8udmLn4DJvaPjTo5dh8-3" value="rr:template&lt;div&gt;&lt;span style=&quot;background-color: initial;&quot;&gt;&quot;&lt;/span&gt;&lt;span style=&quot;background-color: initial;&quot;&gt;{RICO_VERSION}&lt;/span&gt;&lt;span style=&quot;background-color: initial;&quot;&gt;/{&lt;/span&gt;&lt;span style=&quot;font-size: 11px;&quot;&gt;REFD_HIGHER&lt;/span&gt;&lt;span style=&quot;background-color: initial;&quot;&gt;}/RecordSet/1&lt;/span&gt;&lt;/div&gt;" style="swimlane;fontStyle=0;childLayout=stackLayout;horizontal=1;startSize=26;fillColor=none;horizontalStack=0;resizeParent=1;resizeParentMax=0;resizeLast=0;collapsible=1;marginBottom=0;whiteSpace=wrap;html=1;strokeColor=#FF0000;" parent="1" vertex="1">
          <mxGeometry x="-600" y="-172" width="270" height="52" as="geometry" />
        </mxCell>
        <mxCell id="Y8udmLn4DJvaPjTo5dh8-4" value="rico:RecordSet" style="text;strokeColor=none;fillColor=none;align=center;verticalAlign=top;spacingLeft=4;spacingRight=4;overflow=hidden;rotatable=0;points=[[0,0.5],[1,0.5]];portConstraint=eastwest;whiteSpace=wrap;html=1;" parent="Y8udmLn4DJvaPjTo5dh8-3" vertex="1">
          <mxGeometry y="26" width="270" height="26" as="geometry" />
        </mxCell>
        <mxCell id="CqqkDmUT1u8SLOdHSZvS-3" value="" style="endArrow=classic;html=1;rounded=0;exitX=1;exitY=0.5;exitDx=0;exitDy=0;entryX=0;entryY=0.5;entryDx=0;entryDy=0;" parent="1" source="sWa0SD8Ajx1KSGOqKPP4-1" target="CqqkDmUT1u8SLOdHSZvS-5" edge="1">
          <mxGeometry relative="1" as="geometry">
            <mxPoint x="489" y="370" as="sourcePoint" />
            <mxPoint x="1120" y="500" as="targetPoint" />
          </mxGeometry>
        </mxCell>
        <mxCell id="CqqkDmUT1u8SLOdHSZvS-4" value="rico:generalDescription" style="edgeLabel;resizable=0;html=1;;align=center;verticalAlign=middle;" parent="CqqkDmUT1u8SLOdHSZvS-3" connectable="0" vertex="1">
          <mxGeometry relative="1" as="geometry">
            <mxPoint x="175" y="22" as="offset" />
          </mxGeometry>
        </mxCell>
        <mxCell id="CqqkDmUT1u8SLOdHSZvS-5" value="&lt;div&gt;rml:reference&lt;br&gt;&lt;span style=&quot;background-color: initial;&quot;&gt;&quot;&lt;/span&gt;CMTD&lt;span style=&quot;background-color: initial;&quot;&gt;&quot;&lt;/span&gt;&lt;/div&gt;" style="html=1;whiteSpace=wrap;rounded=1;arcSize=50;" parent="1" vertex="1">
          <mxGeometry x="1130" y="470" width="110" height="60" as="geometry" />
        </mxCell>
        <mxCell id="kmMX0edAvFb6f9fuV1_x-1" value="rml:reference&lt;div&gt;&quot;TITLE&quot;&lt;/div&gt;" style="html=1;whiteSpace=wrap;rounded=1;arcSize=50;" parent="1" vertex="1">
          <mxGeometry x="579.5" y="-370" width="111" height="58" as="geometry" />
        </mxCell>
        <mxCell id="kmMX0edAvFb6f9fuV1_x-4" value="" style="endArrow=classic;html=1;rounded=0;entryX=0.25;entryY=1;entryDx=0;entryDy=0;exitX=0.5;exitY=0;exitDx=0;exitDy=0;" parent="1" source="Pa1L8ZfUJXBHrEYyGiSI-1" target="kmMX0edAvFb6f9fuV1_x-1" edge="1">
          <mxGeometry relative="1" as="geometry">
            <mxPoint x="740" y="-192" as="sourcePoint" />
            <mxPoint x="783" y="-406" as="targetPoint" />
          </mxGeometry>
        </mxCell>
        <mxCell id="kmMX0edAvFb6f9fuV1_x-5" value="rico:textualValue" style="edgeLabel;resizable=0;html=1;;align=center;verticalAlign=middle;" parent="kmMX0edAvFb6f9fuV1_x-4" connectable="0" vertex="1">
          <mxGeometry relative="1" as="geometry">
            <mxPoint x="4" y="1" as="offset" />
          </mxGeometry>
        </mxCell>
        <mxCell id="YGqFNZoWXpBRJY-Ts6mn-1" value="&lt;div&gt;rr:template&lt;div&gt;&lt;span style=&quot;background-color: initial;&quot;&gt;&quot;Schema&lt;/span&gt;&lt;span style=&quot;background-color: initial;&quot;&gt;/Description-Listings/RecordState/Web%20Enabled/{&lt;/span&gt;WEBL&lt;span style=&quot;background-color: initial;&quot;&gt;}&quot;&lt;/span&gt;&lt;/div&gt;&lt;/div&gt;" style="swimlane;fontStyle=0;childLayout=stackLayout;horizontal=1;startSize=26;fillColor=none;horizontalStack=0;resizeParent=1;resizeParentMax=0;resizeLast=0;collapsible=1;marginBottom=0;whiteSpace=wrap;html=1;" parent="1" vertex="1">
          <mxGeometry x="1275" y="110" width="380" height="52" as="geometry">
            <mxRectangle x="981" y="570" width="50" height="40" as="alternateBounds" />
          </mxGeometry>
        </mxCell>
        <mxCell id="YGqFNZoWXpBRJY-Ts6mn-2" value="rico:RecordState&lt;div&gt;&lt;br&gt;&lt;/div&gt;" style="text;strokeColor=none;fillColor=none;align=center;verticalAlign=top;spacingLeft=4;spacingRight=4;overflow=hidden;rotatable=0;points=[[0,0.5],[1,0.5]];portConstraint=eastwest;whiteSpace=wrap;html=1;" parent="YGqFNZoWXpBRJY-Ts6mn-1" vertex="1">
          <mxGeometry y="26" width="380" height="26" as="geometry" />
        </mxCell>
        <mxCell id="YGqFNZoWXpBRJY-Ts6mn-3" value="" style="endArrow=classic;html=1;rounded=0;exitX=1;exitY=0;exitDx=0;exitDy=0;entryX=0;entryY=0.5;entryDx=0;entryDy=0;" parent="1" source="wiPwyt0miK05mvKJtJq--55" target="YGqFNZoWXpBRJY-Ts6mn-1" edge="1">
          <mxGeometry relative="1" as="geometry">
            <mxPoint x="1020" y="233" as="sourcePoint" />
            <mxPoint x="1220" y="33" as="targetPoint" />
          </mxGeometry>
        </mxCell>
        <mxCell id="YGqFNZoWXpBRJY-Ts6mn-4" value="rico:hasRecordState" style="edgeLabel;resizable=0;html=1;;align=center;verticalAlign=middle;" parent="YGqFNZoWXpBRJY-Ts6mn-3" connectable="0" vertex="1">
          <mxGeometry relative="1" as="geometry">
            <mxPoint x="8" y="-10" as="offset" />
          </mxGeometry>
        </mxCell>
        <mxCell id="YGqFNZoWXpBRJY-Ts6mn-5" value="" style="endArrow=classic;html=1;rounded=0;exitX=1;exitY=0.5;exitDx=0;exitDy=0;entryX=0;entryY=0.5;entryDx=0;entryDy=0;" parent="1" source="wiPwyt0miK05mvKJtJq--55" target="YGqFNZoWXpBRJY-Ts6mn-7" edge="1">
          <mxGeometry relative="1" as="geometry">
            <mxPoint x="1380" y="230.00000000000023" as="sourcePoint" />
            <mxPoint x="1390" y="240" as="targetPoint" />
          </mxGeometry>
        </mxCell>
        <mxCell id="YGqFNZoWXpBRJY-Ts6mn-6" value="rico:wasLastUpdatedAtDate" style="edgeLabel;resizable=0;html=1;;align=center;verticalAlign=middle;" parent="YGqFNZoWXpBRJY-Ts6mn-5" connectable="0" vertex="1">
          <mxGeometry relative="1" as="geometry" />
        </mxCell>
        <mxCell id="YGqFNZoWXpBRJY-Ts6mn-7" value="&lt;div&gt;rr:template&lt;div&gt;&lt;span style=&quot;background-color: initial;&quot;&gt;&quot;KB/Date/{MODDATE}&lt;/span&gt;&lt;span style=&quot;background-color: initial;&quot;&gt;&quot;&lt;/span&gt;&lt;/div&gt;&lt;/div&gt;" style="swimlane;fontStyle=0;childLayout=stackLayout;horizontal=1;startSize=26;fillColor=none;horizontalStack=0;resizeParent=1;resizeParentMax=0;resizeLast=0;collapsible=1;marginBottom=0;whiteSpace=wrap;html=1;" parent="1" vertex="1">
          <mxGeometry x="1390" y="218" width="210" height="52" as="geometry">
            <mxRectangle x="981" y="570" width="50" height="40" as="alternateBounds" />
          </mxGeometry>
        </mxCell>
        <mxCell id="YGqFNZoWXpBRJY-Ts6mn-8" value="rico:Date&lt;div&gt;&lt;div&gt;&lt;br&gt;&lt;/div&gt;&lt;/div&gt;" style="text;strokeColor=none;fillColor=none;align=center;verticalAlign=top;spacingLeft=4;spacingRight=4;overflow=hidden;rotatable=0;points=[[0,0.5],[1,0.5]];portConstraint=eastwest;whiteSpace=wrap;html=1;" parent="YGqFNZoWXpBRJY-Ts6mn-7" vertex="1">
          <mxGeometry y="26" width="210" height="26" as="geometry" />
        </mxCell>
        <mxCell id="YGqFNZoWXpBRJY-Ts6mn-9" value="" style="endArrow=classic;html=1;rounded=0;exitX=0.738;exitY=1;exitDx=0;exitDy=0;exitPerimeter=0;entryX=0.5;entryY=0;entryDx=0;entryDy=0;" parent="1" source="YGqFNZoWXpBRJY-Ts6mn-8" target="YGqFNZoWXpBRJY-Ts6mn-11" edge="1">
          <mxGeometry relative="1" as="geometry">
            <mxPoint x="1020" y="259" as="sourcePoint" />
            <mxPoint x="1580" y="360" as="targetPoint" />
          </mxGeometry>
        </mxCell>
        <mxCell id="YGqFNZoWXpBRJY-Ts6mn-10" value="rico:normalizedDateValue" style="edgeLabel;resizable=0;html=1;;align=center;verticalAlign=middle;" parent="YGqFNZoWXpBRJY-Ts6mn-9" connectable="0" vertex="1">
          <mxGeometry relative="1" as="geometry" />
        </mxCell>
        <mxCell id="YGqFNZoWXpBRJY-Ts6mn-11" value="rml:reference&lt;div&gt;&lt;span style=&quot;background-color: initial;&quot;&gt;&quot;&lt;/span&gt;&lt;span style=&quot;background-color: initial;&quot;&gt;MODDATE&lt;/span&gt;&lt;span style=&quot;background-color: initial;&quot;&gt;&quot;&lt;/span&gt;&lt;/div&gt;" style="html=1;whiteSpace=wrap;rounded=1;arcSize=50;" parent="1" vertex="1">
          <mxGeometry x="1500" y="370" width="120" height="50" as="geometry" />
        </mxCell>
        <mxCell id="Uwzefx5BK_WfCsw-JH24-1" value="&lt;div&gt;rml:reference&lt;br&gt;&lt;span style=&quot;background-color: initial;&quot;&gt;&quot;&lt;/span&gt;HIDDENNOTES&lt;span style=&quot;background-color: initial;&quot;&gt;&quot;&lt;/span&gt;&amp;nbsp;&lt;/div&gt;" style="html=1;whiteSpace=wrap;rounded=1;arcSize=50;" parent="1" vertex="1">
          <mxGeometry x="1410" y="590" width="140" height="60" as="geometry" />
        </mxCell>
        <mxCell id="Uwzefx5BK_WfCsw-JH24-2" value="" style="endArrow=classic;html=1;rounded=0;exitX=1;exitY=0.5;exitDx=0;exitDy=0;entryX=0;entryY=0.5;entryDx=0;entryDy=0;" parent="1" source="sWa0SD8Ajx1KSGOqKPP4-1" target="Uwzefx5BK_WfCsw-JH24-1" edge="1">
          <mxGeometry relative="1" as="geometry">
            <mxPoint x="610" y="411" as="sourcePoint" />
            <mxPoint x="1405" y="615" as="targetPoint" />
          </mxGeometry>
        </mxCell>
        <mxCell id="Uwzefx5BK_WfCsw-JH24-3" value="rico:generalDescription" style="edgeLabel;resizable=0;html=1;;align=center;verticalAlign=middle;" parent="Uwzefx5BK_WfCsw-JH24-2" connectable="0" vertex="1">
          <mxGeometry relative="1" as="geometry">
            <mxPoint x="225" y="57" as="offset" />
          </mxGeometry>
        </mxCell>
        <mxCell id="Uwzefx5BK_WfCsw-JH24-4" value="&lt;div&gt;&lt;span style=&quot;background-color: initial;&quot;&gt;rml:reference&lt;/span&gt;&lt;br&gt;&lt;/div&gt;&lt;span style=&quot;background-color: initial;&quot;&gt;&quot;&lt;/span&gt;REST&lt;span style=&quot;background-color: initial;&quot;&gt;&quot;&lt;/span&gt;" style="html=1;whiteSpace=wrap;rounded=1;arcSize=50;strokeColor=#FF0000;" parent="1" vertex="1">
          <mxGeometry x="250" y="842" width="130" height="50" as="geometry" />
        </mxCell>
        <mxCell id="Uwzefx5BK_WfCsw-JH24-5" value="" style="endArrow=classic;html=1;rounded=0;entryX=0.5;entryY=0;entryDx=0;entryDy=0;exitX=0.7;exitY=1.038;exitDx=0;exitDy=0;exitPerimeter=0;" parent="1" source="sWa0SD8Ajx1KSGOqKPP4-2" target="Uwzefx5BK_WfCsw-JH24-4" edge="1">
          <mxGeometry relative="1" as="geometry">
            <mxPoint x="480" y="432" as="sourcePoint" />
            <mxPoint x="328" y="810" as="targetPoint" />
          </mxGeometry>
        </mxCell>
        <mxCell id="Uwzefx5BK_WfCsw-JH24-6" value="rico:conditionsOfAccess" style="edgeLabel;resizable=0;html=1;;align=center;verticalAlign=middle;" parent="Uwzefx5BK_WfCsw-JH24-5" connectable="0" vertex="1">
          <mxGeometry relative="1" as="geometry">
            <mxPoint x="-23" y="68" as="offset" />
          </mxGeometry>
        </mxCell>
        <mxCell id="EzCOlmovBxoPGXJnYbDV-1" value="rml:reference&lt;div&gt;&quot;FCODES&quot;&lt;/div&gt;" style="html=1;whiteSpace=wrap;rounded=1;arcSize=50;" vertex="1" parent="1">
          <mxGeometry x="219.5" y="-288" width="111" height="58" as="geometry" />
        </mxCell>
        <mxCell id="EzCOlmovBxoPGXJnYbDV-2" value="" style="endArrow=classic;html=1;rounded=0;entryX=0.25;entryY=1;entryDx=0;entryDy=0;exitX=0.75;exitY=0;exitDx=0;exitDy=0;" edge="1" parent="1" target="EzCOlmovBxoPGXJnYbDV-1" source="wiPwyt0miK05mvKJtJq--29">
          <mxGeometry relative="1" as="geometry">
            <mxPoint x="194.5" y="-172" as="sourcePoint" />
            <mxPoint x="412.5" y="-348" as="targetPoint" />
          </mxGeometry>
        </mxCell>
        <mxCell id="EzCOlmovBxoPGXJnYbDV-3" value="rico:textualValue" style="edgeLabel;resizable=0;html=1;;align=center;verticalAlign=middle;" connectable="0" vertex="1" parent="EzCOlmovBxoPGXJnYbDV-2">
          <mxGeometry relative="1" as="geometry">
            <mxPoint x="4" y="1" as="offset" />
          </mxGeometry>
        </mxCell>
        <mxCell id="EzCOlmovBxoPGXJnYbDV-20" value="" style="endArrow=classic;html=1;rounded=0;entryX=0.498;entryY=0.969;entryDx=0;entryDy=0;exitX=0.128;exitY=0.004;exitDx=0;exitDy=0;exitPerimeter=0;entryPerimeter=0;" edge="1" parent="1" target="EzCOlmovBxoPGXJnYbDV-23" source="sWa0SD8Ajx1KSGOqKPP4-1">
          <mxGeometry relative="1" as="geometry">
            <mxPoint x="130" y="580" as="sourcePoint" />
            <mxPoint y="610" as="targetPoint" />
          </mxGeometry>
        </mxCell>
        <mxCell id="EzCOlmovBxoPGXJnYbDV-21" value="rico:isDirectlyIncludedIn" style="edgeLabel;resizable=0;html=1;;align=center;verticalAlign=middle;" connectable="0" vertex="1" parent="EzCOlmovBxoPGXJnYbDV-20">
          <mxGeometry relative="1" as="geometry" />
        </mxCell>
        <mxCell id="EzCOlmovBxoPGXJnYbDV-22" value="&lt;div&gt;rr:template&lt;/div&gt;&lt;div&gt;&quot;{RICO_VERSION}/{REF_ADD}/RecordSet/1&lt;/div&gt;" style="swimlane;fontStyle=0;childLayout=stackLayout;horizontal=1;startSize=26;fillColor=none;horizontalStack=0;resizeParent=1;resizeParentMax=0;resizeLast=0;collapsible=1;marginBottom=0;whiteSpace=wrap;html=1;strokeColor=#FF0000;" vertex="1" parent="1">
          <mxGeometry x="-425" y="102" width="270" height="52" as="geometry" />
        </mxCell>
        <mxCell id="EzCOlmovBxoPGXJnYbDV-23" value="rico:RecordSet" style="text;strokeColor=none;fillColor=none;align=center;verticalAlign=top;spacingLeft=4;spacingRight=4;overflow=hidden;rotatable=0;points=[[0,0.5],[1,0.5]];portConstraint=eastwest;whiteSpace=wrap;html=1;" vertex="1" parent="EzCOlmovBxoPGXJnYbDV-22">
          <mxGeometry y="26" width="270" height="26" as="geometry" />
        </mxCell>
        <mxCell id="EzCOlmovBxoPGXJnYbDV-48" value="&lt;div&gt;rr:template&lt;br&gt;&lt;span style=&quot;background-color: initial;&quot;&gt;&quot;&lt;/span&gt;{RICO_VERSION}&lt;span style=&quot;background-color: initial;&quot;&gt;/{&lt;/span&gt;REFD&lt;span style=&quot;background-color: initial;&quot;&gt;}/Title/1&quot;&lt;/span&gt;&lt;/div&gt;" style="swimlane;fontStyle=0;childLayout=stackLayout;horizontal=1;startSize=26;fillColor=none;horizontalStack=0;resizeParent=1;resizeParentMax=0;resizeLast=0;collapsible=1;marginBottom=0;whiteSpace=wrap;html=1;" vertex="1" parent="1">
          <mxGeometry x="-1035" y="916" width="230" height="52" as="geometry">
            <mxRectangle x="981" y="570" width="50" height="40" as="alternateBounds" />
          </mxGeometry>
        </mxCell>
        <mxCell id="EzCOlmovBxoPGXJnYbDV-49" value="rico:Title&lt;div&gt;&lt;br&gt;&lt;/div&gt;" style="text;strokeColor=none;fillColor=none;align=center;verticalAlign=top;spacingLeft=4;spacingRight=4;overflow=hidden;rotatable=0;points=[[0,0.5],[1,0.5]];portConstraint=eastwest;whiteSpace=wrap;html=1;" vertex="1" parent="EzCOlmovBxoPGXJnYbDV-48">
          <mxGeometry y="26" width="230" height="26" as="geometry" />
        </mxCell>
        <mxCell id="EzCOlmovBxoPGXJnYbDV-50" value="" style="endArrow=classic;html=1;rounded=0;entryX=0.5;entryY=0;entryDx=0;entryDy=0;exitX=0.483;exitY=1.016;exitDx=0;exitDy=0;exitPerimeter=0;" edge="1" parent="1" target="EzCOlmovBxoPGXJnYbDV-48" source="sWa0SD8Ajx1KSGOqKPP4-15">
          <mxGeometry relative="1" as="geometry">
            <mxPoint x="-290" y="670" as="sourcePoint" />
            <mxPoint x="-265.5" y="1370.0000000000002" as="targetPoint" />
          </mxGeometry>
        </mxCell>
        <mxCell id="EzCOlmovBxoPGXJnYbDV-51" value="rico:hasOrHadTitle" style="edgeLabel;resizable=0;html=1;;align=center;verticalAlign=middle;" connectable="0" vertex="1" parent="EzCOlmovBxoPGXJnYbDV-50">
          <mxGeometry relative="1" as="geometry">
            <mxPoint x="-24" y="-27" as="offset" />
          </mxGeometry>
        </mxCell>
        <mxCell id="EzCOlmovBxoPGXJnYbDV-55" value="rml:reference&lt;div&gt;&lt;span style=&quot;background-color: initial;&quot;&gt;&quot;&lt;/span&gt;DATEACM&lt;span style=&quot;background-color: initial;&quot;&gt;&quot;&lt;/span&gt;&lt;/div&gt;" style="html=1;whiteSpace=wrap;rounded=1;arcSize=50;" vertex="1" parent="1">
          <mxGeometry x="-390" y="180" width="120" height="50" as="geometry" />
        </mxCell>
        <mxCell id="EzCOlmovBxoPGXJnYbDV-56" value="" style="endArrow=classic;html=1;rounded=0;exitX=0;exitY=0.25;exitDx=0;exitDy=0;entryX=1;entryY=0.5;entryDx=0;entryDy=0;" edge="1" parent="1" source="sWa0SD8Ajx1KSGOqKPP4-1" target="EzCOlmovBxoPGXJnYbDV-55">
          <mxGeometry relative="1" as="geometry">
            <mxPoint x="277" y="346" as="sourcePoint" />
            <mxPoint x="-425" y="340" as="targetPoint" />
          </mxGeometry>
        </mxCell>
        <mxCell id="EzCOlmovBxoPGXJnYbDV-57" value="rico:date" style="edgeLabel;resizable=0;html=1;;align=center;verticalAlign=middle;" connectable="0" vertex="1" parent="EzCOlmovBxoPGXJnYbDV-56">
          <mxGeometry relative="1" as="geometry" />
        </mxCell>
      </root>
    </mxGraphModel>
  </diagram>
</mxfile>
